PathFileType	4	(X/Y/Z)	C:/Users/opensim2020/Desktop/walking_exp_matlab/subject06_walking14_straight_01.trc																																																																																																																																					
DataRate	CameraRate	NumFrames	NumMarkers	Units	OrigDataRate	OrigDataStartFrame	OrigNumFrames																																																																																																																																	
100	100	4	45	mm	100	962	203																																																																																																																																	
Frame#	Time	LFHD			RFHD			LBHD			RBHD			C7			T10			CLAV			STRN			RBAK			LSHO			LUPA			LELB			LFRM			LWRA			LWRB			LFIN			RSHO			RUPA			RELB			RFRM			RWRA			RWRB			RFIN			LASI			RASI			LPSI			RPSI			LTHI			LKNE			LTIB			LANK			LHEE			LTOE			RTHI			RKNE			RTIB			RANK			RHEE			RTOE			*39			*40			*41			*42			*43			*44		
		X1	Y1	Z1	X2	Y2	Z2	X3	Y3	Z3	X4	Y4	Z4	X5	Y5	Z5	X6	Y6	Z6	X7	Y7	Z7	X8	Y8	Z8	X9	Y9	Z9	X10	Y10	Z10	X11	Y11	Z11	X12	Y12	Z12	X13	Y13	Z13	X14	Y14	Z14	X15	Y15	Z15	X16	Y16	Z16	X17	Y17	Z17	X18	Y18	Z18	X19	Y19	Z19	X20	Y20	Z20	X21	Y21	Z21	X22	Y22	Z22	X23	Y23	Z23	X24	Y24	Z24	X25	Y25	Z25	X26	Y26	Z26	X27	Y27	Z27	X28	Y28	Z28	X29	Y29	Z29	X30	Y30	Z30	X31	Y31	Z31	X32	Y32	Z32	X33	Y33	Z33	X34	Y34	Z34	X35	Y35	Z35	X36	Y36	Z36	X37	Y37	Z37	X38	Y38	Z38	X39	Y39	Z39	X40	Y40	Z40	X41	Y41	Z41	X42	Y42	Z42	X43	Y43	Z43	X44	Y44	Z44	X45	Y45	Z45
																																																																																																																																								
153	1.52	240.58559	1660.02405	1342.94287	244.42538	1651.21741	1475.07715	105.98754	1608.74902	1348.04126	111.10017	1605.46704	1477.61926	101.57796	1451.65845	1403.65112	62.98145	1122.93762	1414.57495	209.89879	1372.02661	1408.94214	246.4366	1196.6311	1404.23303	23.36836	1283.50427	1478.65466	159.18492	1404.19165	1245.82959	185.02672	1205.90967	1169.80017	205.01581	1095.29309	1153.5304	294.849	975.19324	1137.20203	402.16379	909.91113	1188.4292	357.16934	873.59546	1147.50854	435.18982	828.70294	1151.86267	159.00545	1406.8197	1567.9801	91.87959	1215.17383	1651.9668	83.55583	1092.63171	1662.74854	79.84514	972.51428	1680.95044	118.26643	824.69611	1652.40051	64.65472	835.49121	1690.91895	87.65509	753.73395	1694.03748	237.10153	958.84235	1307.85645	241.31972	972.82416	1527.71948	79.09653	987.84247	1340.24158	89.13896	990.71118	1508.66992	142.05476	646.20233	1268.48804	116.81126	484.28537	1297.01892	36.95398	238.38821	1315.27185	2.78122	72.18345	1370.45361	-38.98322	62.49582	1416.01831	145.32033	38.59913	1370.4989	280.53259	651.49585	1589.73633	330.35748	536.66132	1562.59363	313.43243	274.24191	1569.73608	311.50751	87.06548	1532.97083	271.13013	60.6491	1490.33813	461.29007	53.99054	1523.63293	143.08354	1702.12695	1404.77795	NaN	NaN	NaN	NaN	NaN	NaN	NaN	NaN	NaN	NaN	NaN	NaN	NaN	NaN	NaN
154	1.53	250.7894	1658.65747	1343.22302	254.68594	1649.84302	1475.34729	116.30772	1607.19922	1348.29871	121.30299	1603.90039	1477.98767	112.07576	1450.22791	1403.84729	72.95404	1121.57898	1414.85999	220.2486	1370.5166	1409.19983	256.57199	1195.06531	1404.27087	33.49088	1282.17432	1478.48425	169.62543	1403.03516	1246.13611	196.18718	1205.28699	1169.29187	216.97533	1094.75977	1152.8783	309.32794	976.71515	1136.91333	417.77115	914.05835	1188.80725	373.97202	876.60449	1147.70593	452.9917	833.65399	1152.39624	169.10254	1405.33606	1568.25793	100.36487	1214.25818	1651.90649	91.1364	1091.73657	1662.62146	86.44362	971.65802	1680.80945	123.67932	823.21716	1652.13794	70.06665	834.72803	1690.63074	92.50764	752.8172	1693.86719	246.44107	957.39899	1307.62927	251.87973	971.36713	1527.52319	88.72359	986.33118	1340.58972	99.64495	989.37555	1509.00769	149.88725	645.09222	1268.70288	123.38456	483.26822	1297.3645	40.20192	238.37119	1315.56848	3.39514	72.72235	1370.672	-38.71365	63.5997	1416.46497	145.53931	38.54205	1370.55127	288.6745	649.16132	1589.5603	338.53305	534.27209	1562.55164	334.36096	271.86539	1569.61267	343.93765	84.9767	1532.94189	303.84146	57.69814	1490.60132	495.13007	56.81393	1521.50769	153.23337	1700.64734	1405.08521	NaN	NaN	NaN	NaN	NaN	NaN	NaN	NaN	NaN	NaN	NaN	NaN	NaN	NaN	NaN
155	1.54	260.9942	1657.25244	1343.53369	264.93042	1648.39258	1475.68921	126.56432	1605.5603	1348.65442	131.64575	1602.28271	1478.34033	122.44115	1448.8396	1404.22522	82.86241	1120.16248	1415.28809	230.66531	1369.01978	1409.60767	266.77057	1193.52527	1404.37244	43.82932	1280.6908	1478.40784	180.10385	1401.77625	1246.5304	207.39478	1204.44495	1169.07275	228.83102	1094.12781	1152.33777	323.27994	977.82813	1136.65405	433.02533	917.948	1189.08813	390.27792	879.43811	1147.98706	470.38074	838.34766	1153.13782	179.30278	1403.80884	1568.56604	109.05053	1213.26147	1651.89404	98.98346	1090.77466	1662.64319	93.46825	970.63287	1680.64478	129.61067	821.94977	1652.21692	75.96422	833.89374	1690.47375	97.33895	751.61438	1693.51013	256.20813	956.11975	1307.53833	262.66562	969.96027	1527.1969	98.41521	984.80005	1341.03772	110.28455	987.91553	1509.47888	157.76782	643.99652	1268.87317	130.23857	482.26791	1297.60986	43.56726	238.46745	1315.78076	4.03757	73.43598	1370.86877	-37.82084	64.37435	1416.56909	146.00862	38.56186	1370.16638	296.42392	646.54968	1590.14478	346.57071	531.70685	1562.86682	354.67325	269.99991	1569.4176	374.64368	83.79691	1532.29004	335.49734	55.27294	1490.55212	526.88849	61.45546	1519.23657	163.37422	1699.06592	1405.44678	NaN	NaN	NaN	NaN	NaN	NaN	NaN	NaN	NaN	NaN	NaN	NaN	NaN	NaN	NaN
156	1.55	271.29211	1655.77539	1343.90466	275.26099	1646.90588	1476.00537	136.8878	1603.90039	1349.03943	142.07355	1600.6322	1478.70459	132.89694	1447.25452	1404.5769	93.10542	1118.69531	1415.69824	241.13432	1367.39221	1409.96729	277.07944	1191.8866	1404.55835	54.16553	1279.19299	1478.47681	190.61632	1400.38086	1246.98694	218.40729	1203.46411	1168.88342	240.98178	1093.24915	1151.72095	337.05472	978.95361	1136.30017	447.81842	921.52307	1189.42285	406.30872	882.05963	1148.09302	487.31122	842.79907	1153.73389	189.59744	1402.21289	1568.98096	117.92407	1212.18201	1652.00525	107.0466	1089.71802	1662.76257	100.66255	969.61829	1680.69019	135.95757	820.75842	1652.51892	82.14271	832.98047	1690.41797	103.36768	750.68201	1693.65979	265.16779	954.51019	1306.80774	273.57629	968.39087	1526.98486	108.21642	983.242	1341.56445	120.94012	986.32849	1510.02759	165.85999	642.94128	1268.90979	137.28043	481.32367	1297.75183	46.40069	238.92125	1316.07861	4.72055	74.29198	1370.93176	-37.7905	66.04451	1416.93127	146.0833	38.36989	1370.65295	304.18317	643.83362	1590.97778	354.56546	528.85309	1563.44507	374.086	268.55948	1569.25598	403.65427	83.6465	1531.49841	366.12448	53.31999	1489.78674	556.87817	68.16375	1517.33289	173.58971	1697.45374	1405.80505	NaN	NaN	NaN	NaN	NaN	NaN	NaN	NaN	NaN	NaN	NaN	NaN	NaN	NaN	NaN
